<svg id="Layer_2" data-name="Layer 2" xmlns="http://www.w3.org/2000/svg" xmlns:xlink="http://www.w3.org/1999/xlink" viewBox="0 0 843.68566 597.90212"><defs><style>.cls-1{opacity:0.51;fill:url(#linear-gradient);}.cls-2{fill:#fff;stroke:#fff;opacity:0.55;}.cls-10,.cls-11,.cls-12,.cls-13,.cls-14,.cls-15,.cls-16,.cls-17,.cls-18,.cls-19,.cls-2,.cls-20,.cls-21,.cls-22,.cls-23,.cls-24,.cls-25,.cls-26,.cls-27,.cls-29,.cls-3,.cls-30,.cls-31,.cls-32,.cls-4,.cls-5,.cls-6,.cls-8,.cls-9{stroke-miterlimit:10;}.cls-3{fill:#6d0d00;stroke:#6d0d00;}.cls-3,.cls-4{opacity:0.65;}.cls-28,.cls-4{fill:#360031;}.cls-4{stroke:#360031;}.cls-5{fill:#1f001e;stroke:#1f001e;opacity:0.79;}.cls-10,.cls-12,.cls-6{fill:#3c5124;}.cls-6{stroke:#375000;}.cls-7{fill:url(#linear-gradient-2);}.cls-10,.cls-13,.cls-14,.cls-15,.cls-16,.cls-17,.cls-18,.cls-19,.cls-20,.cls-21,.cls-22,.cls-23,.cls-24,.cls-25,.cls-26,.cls-27,.cls-29,.cls-30,.cls-31,.cls-32,.cls-8,.cls-9{stroke-linecap:round;}.cls-8{fill:url(#linear-gradient-3);stroke:url(#linear-gradient-3);}.cls-11,.cls-9{fill:#515f00;stroke:#515f00;}.cls-10,.cls-12{stroke:#3c5124;}.cls-13{fill:url(#linear-gradient-5);stroke:url(#linear-gradient-6);}.cls-14{fill:url(#linear-gradient-7);stroke:url(#linear-gradient-8);}.cls-15{fill:url(#linear-gradient-9);stroke:url(#linear-gradient-10);}.cls-16{fill:url(#linear-gradient-11);stroke:url(#linear-gradient-12);}.cls-17{fill:url(#linear-gradient-13);stroke:url(#linear-gradient-14);}.cls-18{fill:url(#linear-gradient-15);stroke:url(#linear-gradient-16);}.cls-19{fill:url(#linear-gradient-17);stroke:url(#linear-gradient-18);}.cls-20{fill:url(#linear-gradient-19);stroke:url(#linear-gradient-20);}.cls-21{fill:url(#linear-gradient-21);stroke:url(#linear-gradient-22);}.cls-22{fill:url(#linear-gradient-23);stroke:url(#linear-gradient-24);}.cls-23{fill:url(#linear-gradient-25);stroke:url(#linear-gradient-26);}.cls-24{fill:url(#linear-gradient-27);stroke:url(#linear-gradient-28);}.cls-25{fill:url(#linear-gradient-29);stroke:url(#linear-gradient-30);}.cls-26{fill:url(#linear-gradient-31);stroke:url(#linear-gradient-32);}.cls-27{fill:url(#linear-gradient-33);stroke:url(#linear-gradient-34);}.cls-29{fill:url(#linear-gradient-35);stroke:url(#linear-gradient-36);}.cls-30{fill:url(#linear-gradient-37);stroke:url(#linear-gradient-38);}.cls-31{fill:url(#linear-gradient-39);stroke:url(#linear-gradient-40);}.cls-32{fill:url(#linear-gradient-41);stroke:url(#linear-gradient-42);}</style><linearGradient id="linear-gradient" x1="123.305" y1="297.64" x2="718.585" y2="297.64" gradientTransform="translate(123.305 718.585) rotate(-90)" gradientUnits="userSpaceOnUse"><stop offset="0" stop-color="#01006a"/><stop offset="1" stop-color="#515f00"/></linearGradient><linearGradient id="linear-gradient-2" x1="392.05943" y1="551.13468" x2="480.83894" y2="551.13468" gradientTransform="matrix(-0.00144, -1, 1, -0.00144, -114.05016, 988.38285)" gradientUnits="userSpaceOnUse"><stop offset="0" stop-color="#375000"/><stop offset="1" stop-color="#515f00"/></linearGradient><linearGradient id="linear-gradient-3" x1="587.21204" y1="613.15046" x2="587.21204" y2="613.15046" gradientUnits="userSpaceOnUse"><stop offset="0.41259" stop-color="#08717c"/><stop offset="0.76485" stop-color="#08504c"/></linearGradient><linearGradient id="linear-gradient-5" x1="2.6302" y1="416.51237" x2="77.33005" y2="416.51237" xlink:href="#linear-gradient-3"/><linearGradient id="linear-gradient-6" x1="2.04224" y1="415.2062" x2="77.91801" y2="415.2062" xlink:href="#linear-gradient-3"/><linearGradient id="linear-gradient-7" x1="214.16776" y1="437.31601" x2="274.21803" y2="437.31601" xlink:href="#linear-gradient-3"/><linearGradient id="linear-gradient-8" x1="213.56811" y1="436.17532" x2="274.81768" y2="436.17532" xlink:href="#linear-gradient-3"/><linearGradient id="linear-gradient-9" x1="505.26978" y1="467.8811" x2="554.87388" y2="467.8811" xlink:href="#linear-gradient-3"/><linearGradient id="linear-gradient-10" x1="504.69657" y1="466.29003" x2="555.44709" y2="466.29003" xlink:href="#linear-gradient-3"/><linearGradient id="linear-gradient-11" x1="621.26111" y1="452.98051" x2="697.81765" y2="452.98051" xlink:href="#linear-gradient-3"/><linearGradient id="linear-gradient-12" x1="620.65059" y1="451.96207" x2="698.42817" y2="451.96207" xlink:href="#linear-gradient-3"/><linearGradient id="linear-gradient-13" x1="52.26705" y1="521.36517" x2="95.04666" y2="521.36517" xlink:href="#linear-gradient-3"/><linearGradient id="linear-gradient-14" x1="51.66455" y1="520.25905" x2="95.64916" y2="520.25905" xlink:href="#linear-gradient-3"/><linearGradient id="linear-gradient-15" x1="249.20827" y1="481.63553" x2="325.76481" y2="481.63553" xlink:href="#linear-gradient-3"/><linearGradient id="linear-gradient-16" x1="248.59775" y1="480.61709" x2="326.37533" y2="480.61709" xlink:href="#linear-gradient-3"/><linearGradient id="linear-gradient-17" x1="608.27025" y1="512.39656" x2="648.11273" y2="512.39656" xlink:href="#linear-gradient-3"/><linearGradient id="linear-gradient-18" x1="607.65041" y1="511.46512" x2="648.73257" y2="511.46512" xlink:href="#linear-gradient-3"/><linearGradient id="linear-gradient-19" x1="307.97673" y1="458.25573" x2="386.65857" y2="458.25573" xlink:href="#linear-gradient-3"/><linearGradient id="linear-gradient-20" x1="307.3834" y1="457.03072" x2="387.2519" y2="457.03072" xlink:href="#linear-gradient-3"/><linearGradient id="linear-gradient-21" x1="161.09616" y1="455.94105" x2="209.60053" y2="455.94105" xlink:href="#linear-gradient-3"/><linearGradient id="linear-gradient-22" x1="160.53458" y1="454.02917" x2="210.16212" y2="454.02917" xlink:href="#linear-gradient-3"/><linearGradient id="linear-gradient-23" x1="91.15469" y1="479.8447" x2="128.95573" y2="479.8447" xlink:href="#linear-gradient-3"/><linearGradient id="linear-gradient-24" x1="90.59569" y1="477.84416" x2="129.51474" y2="477.84416" xlink:href="#linear-gradient-3"/><linearGradient id="linear-gradient-25" x1="128.65129" y1="462.53236" x2="155.71937" y2="462.53236" xlink:href="#linear-gradient-3"/><linearGradient id="linear-gradient-26" x1="128.05459" y1="461.3537" x2="156.31607" y2="461.3537" xlink:href="#linear-gradient-3"/><linearGradient id="linear-gradient-27" x1="794.57232" y1="405.06533" x2="842.39" y2="405.06533" xlink:href="#linear-gradient-3"/><linearGradient id="linear-gradient-28" x1="793.9897" y1="403.66777" x2="842.97262" y2="403.66777" xlink:href="#linear-gradient-3"/><linearGradient id="linear-gradient-29" x1="751.44874" y1="416.75149" x2="789.08968" y2="416.75149" xlink:href="#linear-gradient-3"/><linearGradient id="linear-gradient-30" x1="750.87384" y1="415.19894" x2="789.66458" y2="415.19894" xlink:href="#linear-gradient-3"/><linearGradient id="linear-gradient-31" x1="553.81341" y1="466.01025" x2="583.19551" y2="466.01025" xlink:href="#linear-gradient-3"/><linearGradient id="linear-gradient-32" x1="553.19172" y1="465.09446" x2="583.8172" y2="465.09446" xlink:href="#linear-gradient-3"/><linearGradient id="linear-gradient-33" x1="708.4121" y1="457.86444" x2="746.62286" y2="457.86444" xlink:href="#linear-gradient-3"/><linearGradient id="linear-gradient-34" x1="707.81546" y1="456.68494" x2="747.2195" y2="456.68494" xlink:href="#linear-gradient-3"/><linearGradient id="linear-gradient-35" x1="761.45678" y1="518.05029" x2="808.64207" y2="518.05029" xlink:href="#linear-gradient-3"/><linearGradient id="linear-gradient-36" x1="760.84127" y1="517.08014" x2="809.25757" y2="517.08014" xlink:href="#linear-gradient-3"/><linearGradient id="linear-gradient-37" x1="710.91882" y1="538.65565" x2="737.55532" y2="538.65565" xlink:href="#linear-gradient-3"/><linearGradient id="linear-gradient-38" x1="710.30306" y1="537.68787" x2="738.17108" y2="537.68787" xlink:href="#linear-gradient-3"/><linearGradient id="linear-gradient-39" x1="196.24942" y1="537.45099" x2="233.15478" y2="537.45099" xlink:href="#linear-gradient-3"/><linearGradient id="linear-gradient-40" x1="195.63919" y1="536.42958" x2="233.76501" y2="536.42958" xlink:href="#linear-gradient-3"/><linearGradient id="linear-gradient-41" x1="553.97114" y1="508.88199" x2="630.52768" y2="508.88199" xlink:href="#linear-gradient-3"/><linearGradient id="linear-gradient-42" x1="553.31736" y1="508.17751" x2="631.18147" y2="508.17751" xlink:href="#linear-gradient-3"/></defs><title>mountains</title><rect class="cls-1" width="841.89" height="595.28" transform="translate(842.39 595.40212) rotate(-180)"/><path class="cls-2" d="M3.85608,55.05625c15.61169-23.20331,63.88248-32.00006,96.4835-19.24512,22.56015,8.82654,24.39637,22.80133,50.07371,28.86768,20.57294,4.86041,25.86007-2.58295,46.40979-1.06921,48.5274,3.57465,53.49682,47.62061,98.84408,51.32034,24.48559,1.99771,30.6501-10.2229,68.47538-7.48422,17.47,1.26489,18.20047,4.01984,40.30323,7.48422,51.96971,8.14575,87.23016-.92526,89.15565,5.34586,1.09722,3.57352-9.58306,9.02454-26.86883,17.10678-46.34459,21.66913-69.5169,32.50369-87.93433,37.42105-86.31306,23.04517-128.68682-14.4787-183.1965,10.69174-7.35786,3.39758-22.80595,11.57111-39.08191,7.48419-16.46778-4.13507-17.14441-16.64328-34.19669-22.45264-16.9606-5.77811-24.63034,3.755-51.295,4.2767-8.31429.16269-44.846,0.87747-62.28682-18.17593-7.57976-8.28058-8.006-24.87817-8.54917-57.73535C-0.22079,73.91242-.34159,61.29514,3.85608,55.05625Z" transform="translate(0.5 0.12212)"/><path class="cls-2" d="M4.42444,47.05625C22.33721,23.85294,77.72287,15.05619,115.12911,27.81113c25.8854,8.82654,27.99227,22.80133,57.45432,28.86768,23.60528,4.86041,29.67171-2.58295,53.25036-1.06921,55.68009,3.57465,61.382,47.62061,113.41319,51.32034,28.09464,1.99771,35.16777-10.2229,78.5683-7.48422,20.045,1.26489,20.88312,4.01984,46.24373,7.48422,59.62978,8.14575,100.08744-.92526,102.29674,5.34586,1.25894,3.57352-10.99556,9.02454-30.82916,17.10678-53.17554,21.66913-79.76333,32.50369-100.8954,37.42105-99.03516,23.04517-147.6546-14.4787-210.19873,10.69174-8.44237,3.39758-26.16743,11.57111-44.84239,7.48419-18.895-4.13507-19.6714-16.64328-39.2371-22.45264-19.4605-5.77811-28.26073,3.755-58.85565,4.2767-9.53977.16269-51.45607,0.87747-71.46757-18.17593-8.697-8.28058-9.18607-24.87817-9.80927-57.73535C-0.25333,65.91242-.39193,53.29514,4.42444,47.05625Z" transform="translate(0.5 0.12212)"/><path class="cls-2" d="M842.02209,48.98978c-11.74994,7.14911-30.29938,16.20544-53.86835,17.95612-28.44543,2.11292-35.42236-8.55341-60.28119-5.13031-33.48,4.61017-35.18378,25.93484-65.4115,29.4993-27.29248,3.21832-30.248-13.65372-69.25922-19.23868-22.96588-3.2879-21.98212,2.55359-85.7323,7.69543-54.13776,4.36661-68.39648,1.2467-77.15515-1.28253-21.49963-6.20856-21.31784-12.16754-47.45541-20.52124C346.18057,46.24521,318.95544,49.39279,318.73,45.14206c-0.21182-3.99469,23.75095-8.3042,34.62964-10.26062,25.00952-4.49774,42.274-7.60266,62.84634-5.13031,36.53568,4.39075,37.53458,20.84772,62.84634,20.52124,32.13971-.41455,33.82983-26.9903,67.97662-33.347,39.03424-7.2666,50.91211,24.83887,101.32373,20.52124,5.13422-.43976,21.27673-5.044,53.56165-14.2525,44.00836-12.55231,49.65009-15.834,67.00073-19.09454C785.741,0.93759,810.381-1.60739,841.9054,2.54318" transform="translate(0.5 0.12212)"/><path class="cls-2" d="M841.9054,68.15537C816.976,83.63873,797.52081,85.68509,784.14294,84.53522c-21.07819-1.81174-36.39-11.07443-64.84955-8.17691-35.70117,3.63483-36.62457,26.93622-68.88312,29.56259-29.126,2.37137-33.0097-16.24695-75.07324-24.02115-24.76282-4.57672-23.46057,1.86768-91.59433,4.80295-57.86035,2.49271-73.28043-1.531-82.77844-4.67429-23.31445-7.71588-23.372-14.23969-51.75-24.5033C309.39185,43.12229,280.335,45.419,279.91324,40.75028c-0.39633-4.38751,25.11346-8.09595,36.69449-9.77948,26.62415-3.87042,45.00323-6.5423,67.16516-2.96088,39.3588,6.36035,41.127,24.44086,68.25186,25.15533,34.44193,0.9071,35.12823-28.15045,71.47037-33.67145,41.54388-6.31116,55.63916,29.38226,109.50647,26.78534,5.48621-.26447,22.59882-4.62726,56.82391-13.35284,47.27789-12.05334,53.16925-15.18518,71.02783-18.09082,19.02417-3.09528,46.49835-4.998,81.43134,1.36115" transform="translate(0.5 0.12212)"/><path class="cls-2" d="M840.88531,154.38056A168.79444,168.79444,0,0,1,806.589,162.659c-37.91516,5.01456-52.24622-6.47217-81.60162-5.91315-41.7464.795-40.73322,24.55817-87.51477,30.74841-34.94476,4.624-36.884-8.45346-89.88007-10.64368a348.74838,348.74838,0,0,0-100.52377,10.64368c-44.866,11.95651-47.089,23.39767-83.96689,27.20056-24.91422,2.56918-30.72543-1.94885-68.59268,0-11.75912.60519-65.81451,3.38718-66.22742,10.64368-0.43272,7.60461,57.60461,27.91,119.44586,18.92212,34.28693-4.98322,42.61041-15.02768,78.05374-15.37421,34.21594-.33453,35.57547,8.93716,73.32321,11.82632,48.87161,3.74057,52.969-11.31281,111.16745-10.64371,45.4245,0.52225,46.29187,9.73135,78.05371,4.73053,35.16217-5.53619,45.76019-18.65869,68.59271-11.82632,20.95367,6.27014,25.81476,21.44739,47.3053,23.65265,14.88153,1.52707,27.83026-4.18268,36.66156-9.46106" transform="translate(0.5 0.12212)"/><path class="cls-2" d="M842.89,131.83837a152.302,152.302,0,0,1-36.33319,10.75936c-40.167,6.51736-55.34913-8.4118-86.448-7.68525-44.22573,1.03323-43.15237,31.918-92.7123,39.96337-37.02014,6.00971-39.07459-10.98687-95.21807-13.83347-54.11254-2.74363-97.11859,10.76828-106.49391,13.83347-47.5306,15.53975-49.88559,30.4097-88.95371,35.35227-26.39388,3.33914-32.55023-2.5329-72.66642,0-12.4575.78656-69.72326,4.40228-70.16068,13.83347-0.45842,9.88363,61.02577,36.27436,126.53979,24.59287,36.32324-6.47663,45.14106-19.53131,82.68938-19.98168,36.248-.43479,37.68831,11.61553,77.6779,15.37054,51.77411,4.86158,56.11481-14.70313,117.76972-13.83351,48.12227,0.67876,49.04116,12.64773,82.68934,6.14822,37.25046-7.19533,48.4779-24.25049,72.66645-15.37054,22.19812,8.14923,27.3479,27.87493,50.11477,30.74108,15.76535,1.98471,29.48311-5.43618,38.8389-12.29643" transform="translate(0.5 0.12212)"/><path class="cls-3" d="M719.58252,513.00623l-595.98572,3.465c56.7756-119.36473,178.21011-194.32428,308.388-190.57684C554.20239,329.41269,665.24866,401.76312,719.58252,513.00623Z" transform="translate(0.5 0.12212)"/><path class="cls-4" d="M0.2694,455.367c7.52706,0.3837,18.78347-.21414,29.323-6.52711,18.56943-11.12276,19.79019-31.00681,29.72235-30.96078,10.034,0.04649,11.34332,19.83495,33.43765,32.19922,5.36617,3.003,11.50131,6.32745,18.57647,4.95374,6.90828-1.34131,9.21945-6.0952,14.86118-4.95374,5.61626,1.13631,11.144,7.42914,11.14587,7.43059,4.12267-2.07417,9.38857-3.74475,14.86119-2.47685,8.874,2.05592,10.26024,9.97745,19.8149,12.38431,5.34157,1.34557,6.75153-.66592,16.09961-1.23843,10.902-.66768,16.0609,1.63476,23.5302,2.47687,19.86418,2.23955,21.79892-9.71292,42.10667-9.90746,20.48723-.19624,30.30775,11.85551,40.86824,4.95374,6.01221-3.92924,5.03024-9.27385,11.14587-11.14589,8.34769-2.55528,13.14014,6.49557,24.76865,4.95372,2.82977-.37521,10.52161-1.3951,13.74509-5.33629a2.36844,2.36844,0,0,1,1.11609-.85587c2.9827-.96318,5.543,6.40849,11.14587,9.90746,7.176,4.48138,11.89362-2.042,23.53021,1.23843,8.37991,2.36237,8.66623,6.51577,14.86118,6.19215,0.00009,0,2.58038-.1348,14.86118-6.19215,2.78436-4.49327,7.10876-9.94229,12.38431-9.90746,6.70676,0.0443,8.38687,8.90822,16.09961,9.90746,8.68427,1.12511,12.73148-9.3123,21.05334-7.43059,5.65323,1.27829,6.80777,6.77832,11.14587,6.19215,4.7067-.636,4.74481-7.29907,9.90747-8.669,5.49734-1.45876,8.46259,5.298,14.86118,4.95372,6.76221-.36382,7.17181-8.11053,14.86118-12.38431,10.50308-5.83765,17.57657,4.25951,37.15292,2.47687,12.95789-1.18,13.352-5.922,26.00708-6.19217,12.07654-.25786,17.46277,4.01468,27.24548,6.19217,9.70667,2.16055,24.38934,2.43242,44.88257-7.44458a14.47818,14.47818,0,0,0,16.78619-.35716,43.08918,43.08918,0,0,0,54.67462-3.91484l9.97662-1.90617,33.43768,7.43059c10.2771,5.87491,12.02667,11.46436,18.57648,11.14589,9.66089-.46974,10.96484-12.87862,22.29175-14.86118,6.09271-1.06641,11.49243,1.76592,22.29175,7.43059a106.54294,106.54294,0,0,1,18.57648,12.38431q-0.00577,68.86-.0116,137.72L0.69451,595.6541Z" transform="translate(0.5 0.12212)"/><path class="cls-5" d="M841.89,595.28H0V473.55127l46.385-12.75879c17.32362,6.69294,31.35975,8.02409,40.9906,7.99816,13.28868-.03578,18.25543-2.65543,31.99266-0.99977,13.71383,1.65285,17.23363,5.28438,29.99311,7.99816,8.99567,1.91327,22.40178,3.33163,39.99083,0a81.85092,81.85092,0,0,0,81.98119,0c7.25275,5.88043,18.57733,13.10216,32.99243,13.9968,15.39,0.95515,18.33917-6.29224,34.992-6.9984,24.34225-1.03222,32.24759,13.851,49.98853,9.9977,7.06561-1.53463,16.97375-6.31969,26.9938-21.99495,17.73209,16.62376,31.75436,17.39975,37.9913,16.9961,2.15784-.13966,6.46408-0.61987,29.9931-9.99771,9.97818-3.977,18.20627-7.4787,23.99451-9.9977a84.073,84.073,0,0,0,40.9906,10.99747c32.26367,0.07722,53.79431-19.098,58.98645-23.99449,23.03058,17.94417,40.44751,20.17506,51.9881,18.99564,17.29242-1.76723,21.14087-11.16575,39.99078-11.99725,20.487-.90372,26.76459,9.72074,46.98926,11.99725,12.01739,1.35269,29.45-.18674,51.988-13.99679,2.26007,2.83437,10.65851,12.6553,24.99426,14.99656a39.18476,39.18476,0,0,0,17.68353-1.238V595.28Z" transform="translate(0.5 0.12212)"/><path class="cls-6" d="M841.89,597.28H0V509.11388c3.986-.05287,10.03867-0.14912,17.39161-0.332,82.20856-2.04407,137.1828-10.19142,163.96238-12.997,93.55806-9.80173,90.29146,19.686,201.95366,15.99633,96.911-3.20222,94.11731-25.24,175.95963-20.99518,63.93884,3.31622,85.26514,17.78445,163.9624,21.99495A705.031,705.031,0,0,0,841.89,509.11388V597.28Z" transform="translate(0.5 0.12212)"/><path class="cls-7" d="M468.13324,595.46963l-58.24128.09728c15.81446-12.05108,18.43909-21.146,18.00955-27.1534-1.2443-17.40216-29.50494-28.29927-26.04713-38.41112,1.63758-4.78888,8.90514-5.06162,12.82335-14.015A23.51254,23.51254,0,0,0,416.585,507.472l6.61422-.70392a23.5964,23.5964,0,0,1,2.18671,10.81606c-0.33764,7.03027-3.94456,8.96166-3.7263,12.38515,0.62336,9.77783,30.95511,8.28249,43.49184,23.74179C470.372,560.1486,474.46476,571.94044,468.13324,595.46963Z" transform="translate(0.5 0.12212)"/><path class="cls-8" d="M587.212,613.15046" transform="translate(0.5 0.12212)"/><path class="cls-9" d="M457.249,505.96866l-22.284.50558a2.76625,2.76625,0,1,1,4.78741-2.71718,3.9142,3.9142,0,0,1,1.29391-4.01108c1.57532-1.12685,4.2934-.62873,5.69006,1.58073a6.13718,6.13718,0,0,1,6.34317-1.83951A6.20339,6.20339,0,0,1,457.249,505.96866Z" transform="translate(0.5 0.12212)"/><path class="cls-9" d="M761.30384,585.7801l-26.65247.17085c-1.28754-3.22145.10413-6.06891,1.7085-6.49227,1.25458-.33106,3.00488.72365,4.10034,2.56274-1.35718-3.6819.73627-7.08795,3.07532-7.51737,1.78979-.32859,4.02734,1.02989,5.12549,3.417,0.491-2.8236,3.28741-4.30639,5.29633-3.58783a4.90456,4.90456,0,0,0,6.66309,5.638A4.38943,4.38943,0,0,1,761.30384,585.7801Z" transform="translate(0.5 0.12212)"/><path class="cls-9" d="M653.54462,589.04024H638.27094a4.44962,4.44962,0,0,1,1.95691-4.57344,4.49578,4.49578,0,0,1,5.67993.97964,4.65314,4.65314,0,0,1,6.45038-1.15049A4.45428,4.45428,0,0,1,653.54462,589.04024Z" transform="translate(0.5 0.12212)"/><path class="cls-9" d="M572.16589,529.61066l-30.2403,1.36679c-1.64355-2.96768-.20636-6.27348,1.87933-7.00482,1.90143-.66675,4.74951.66328,5.70038,3.533a3.69848,3.69848,0,0,1-.06238-4.38727c1.16541-1.23831,3.99036-1.177,5.63806,1.02509a5.59823,5.59823,0,0,1,5.20575-5.1731,5.45406,5.45406,0,0,1,4.87433,3.1229c1.88586-1.88206,4.33881-2.78581,5.97974-2.05019C573.385,521.0492,574.704,525.388,572.16589,529.61066Z" transform="translate(0.5 0.12212)"/><path class="cls-10" d="M499.55893,595.32853l-47.27753-.273c-3.6944-5.566-1.63559-12.12679,2.25089-13.92206,2.81583-1.30071,6.83762-.21377,9.69989,2.76862-1.50317-3.31183-1.41714-7.257-.09235-9.26525,1.72516-2.61513,5.90689-2.48575,8.346,2.16484,0.44046-6.20731,3.898-10.80545,7.706-10.9248,2.94775-.09239,5.776,2.50917,7.21542,6.59509,0.80182-.88489,4.09119-4.31447,8.85178-4.32968,6.25162-.02,11.31082,5.86,12.195,11.78543C509.37448,586.09667,505.79205,592.46494,499.55893,595.32853Z" transform="translate(0.5 0.12212)"/><path class="cls-9" d="M719.32529,522.20422H693.27024a7.71115,7.71115,0,0,1,13.02753-5.39069A7.37432,7.37432,0,0,1,719.32529,522.20422Z" transform="translate(0.5 0.12212)"/><path class="cls-11" d="M233.21457,540.42777l-27.01616.63567c-0.86824-2.51012-.28139-4.69759.95352-5.29728a2.30827,2.30827,0,0,1,1.80107,0,2.74888,2.74888,0,0,1,4.55566-3.07243,4.44993,4.44993,0,0,1,8.68755-1.27135c0.63745-2.98158,3.55261-4.57193,5.72107-3.92,2.2789,0.68514,3.8485,3.8815,2.43675,6.78053A3.63078,3.63078,0,0,1,233.21457,540.42777Z" transform="translate(0.5 0.12212)"/><path class="cls-12" d="M451.87186,595.01l-49.06064.27c-1.57358-4.5132-.51-8.44627,1.72815-9.52453a4.2141,4.2141,0,0,1,3.26425,0,4.968,4.968,0,0,1,1.34412-6.66717,5.06255,5.06255,0,0,1,6.91254,1.14294,8.21088,8.21088,0,0,1,6.14447-7.61963,8.32732,8.32732,0,0,1,9.60074,5.33374c1.1553-5.36089,6.43872-8.22035,10.3688-7.04816,4.13025,1.23189,6.975,6.979,4.41635,12.1914a7.65318,7.65318,0,0,1,6.14447,3.23835A7.35511,7.35511,0,0,1,451.87186,595.01Z" transform="translate(0.5 0.12212)"/><path class="cls-11" d="M164.24446,498.04588L147.477,498.312a3.10812,3.10812,0,0,1,.73192-3.1938,3.16348,3.16348,0,0,1,3.99225-.19962,3.36992,3.36992,0,1,1,6.52069-1.66344,3.98754,3.98754,0,0,1,4.05879.19962A4.0363,4.0363,0,0,1,164.24446,498.04588Z" transform="translate(0.5 0.12212)"/><path class="cls-11" d="M55.63216,583.50356l-37.83525.42671a6.00052,6.00052,0,0,1,10.38336-4.97832,5.85862,5.85862,0,0,1,10.38336-5.2628,6.90576,6.90576,0,0,1,7.68084-6.54294,6.86965,6.86965,0,0,1,5.54727,7.39636,5.88872,5.88872,0,0,1,4.55161,3.12923A5.551,5.551,0,0,1,55.63216,583.50356Z" transform="translate(0.5 0.12212)"/><path class="cls-11" d="M406.10451,556.318l-19.627.55759c-0.95227-1.646-.4017-3.36324.55759-3.79157a2.28339,2.28339,0,0,1,2.23035.55759,3.7816,3.7816,0,0,1,2.34183-3.12247,3.98931,3.98931,0,0,1,4.79523,2.56488,2.28942,2.28942,0,1,1,4.57217.223,2.77143,2.77143,0,0,1,.89215-2.78792,2.89886,2.89886,0,0,1,3.234.11151C406.52776,551.57958,407.04335,553.91859,406.10451,556.318Z" transform="translate(0.5 0.12212)"/><polygon class="cls-13" points="39.98 301.776 2.63 531.249 77.33 531.249 39.98 301.776"/><polygon class="cls-14" points="244.193 355.165 214.168 519.467 274.218 519.467 244.193 355.165"/><polygon class="cls-15" points="530.072 377.403 505.27 558.36 554.874 558.36 530.072 377.403"/><polygon class="cls-16" points="659.539 357.778 621.261 548.183 697.818 548.183 659.539 357.778"/><polygon class="cls-17" points="73.657 464.345 52.267 578.385 95.047 578.385 73.657 464.345"/><polygon class="cls-18" points="287.487 386.433 249.208 576.838 325.765 576.838 287.487 386.433"/><polygon class="cls-19" points="628.191 466.391 608.27 558.402 648.113 558.402 628.191 466.391"/><polygon class="cls-20" points="347.318 343.878 307.977 572.633 386.659 572.633 347.318 343.878"/><polygon class="cls-21" points="185.348 351.784 161.096 560.098 209.601 560.098 185.348 351.784"/><polygon class="cls-22" points="110.055 395.298 91.155 564.391 128.956 564.391 110.055 395.298"/><polygon class="cls-23" points="142.185 424.458 128.651 500.607 155.719 500.607 142.185 424.458"/><polygon class="cls-24" points="818.481 327.195 794.572 482.935 842.39 482.935 818.481 327.195"/><polygon class="cls-25" points="770.269 349.557 751.449 483.946 789.09 483.946 770.269 349.557"/><polygon class="cls-26" points="568.504 432.554 553.813 499.467 583.196 499.467 568.504 432.554"/><polygon class="cls-27" points="727.517 404.084 708.412 511.645 746.623 511.645 727.517 404.084"/><path class="cls-28" d="M39.501,553.31585h-5.6823L34.79032,498.874h-5.03q-10.84046-.77883-21.68092-1.55763A49.174,49.174,0,0,0,29.24,494.97994a53.67359,53.67359,0,0,0,5.93167-2.41316q0.06764-20.95842.13529-41.91688-2.40082-.31957-4.85283-0.5815c-6.27786-.66895-12.3548-0.99351-18.212-1.0384a114.367,114.367,0,0,1,18.212-3.11525q2.53381-.22327,4.98813-0.32724-0.20294-20.65471-.40588-41.30938-2.46457.17976-4.92914,0.35955-4.24946-.77883-8.49893-1.55763,4.54935-1.02091,9.0987-2.04186,2.097-.91125,4.19407-1.82246,0.13178-21.408.26356-42.81605l1.36,43.221q2.948,0.42528,5.95288.81,3.49085,0.44641,6.91292.81838a37.34478,37.34478,0,0,1-5.44816,1.8121,34.85914,34.85914,0,0,1-7.28234,1.01449q0.33823,20.7559.67647,41.51185,3.47975-.12834,7.12747-0.09668c4.11551,0.04017,8.08027.24511,11.88294,0.57841q-5.60029,1.47089-11.4965,2.74734-3.6.77545-7.108,1.42834,0.20294,21.16093.40588,42.32187,2.55314,0.59513,5.18877,1.09918a127.6231,127.6231,0,0,0,24.8194,2.26511c-7.51414.24527-15.29008,0.82573-23.306,1.8121q-3.36489.41406-6.65886,0.90607Q38.84623,525.98253,39.501,553.31585Z" transform="translate(0.5 0.12212)"/><path class="cls-28" d="M569.38333,515.359h-2.22076l0.37971-20.75874h-1.96582l-8.47335-.59392a19.67164,19.67164,0,0,0,8.27-.89088,21.27937,21.27937,0,0,0,2.31822-.92014l0.05287-15.983q-0.93829-.12185-1.89659-0.22173c-2.45352-.25507-4.82851-0.37883-7.11761-0.39594a45.71468,45.71468,0,0,1,7.11761-1.18785q0.99026-.08513,1.94946-0.12478l-0.15863-15.75131-1.92641.1371-3.32155-.59392,3.556-.77856,1.63913-.69491,0.103-16.32581,0.5315,16.48023q1.15213,0.16216,2.32651.30884,1.3643,0.17022,2.70171.312a14.85057,14.85057,0,0,1-2.12925.691,13.94338,13.94338,0,0,1-2.84609.38683l0.26438,15.82851q1.36-.04894,2.78556-0.03686c1.60842,0.01532,3.15793.09346,4.64409,0.22055q-2.18871.56085-4.49307,1.04756-1.40694.29568-2.778,0.54463l0.15863,16.13737q0.99782,0.22692,2.02788.41912a51.08738,51.08738,0,0,0,9.69993.86369c-2.93668.09352-5.97568,0.31485-9.10847,0.691q-1.31507.15788-2.60242,0.34549Q569.12742,504.93679,569.38333,515.359Z" transform="translate(0.5 0.12212)"/><path class="cls-28" d="M770.76169,501.53829H767.802l0.50606-32.401h-2.61995l-11.29287-.927a22.60626,22.60626,0,0,0,11.02184-1.39052,26.08424,26.08424,0,0,0,3.08961-1.43619q0.03523-12.47338.07047-24.94678-1.2505-.19019-2.52768-0.34608a84.55975,84.55975,0,0,0-9.486-.618,52.84538,52.84538,0,0,1,9.486-1.854q1.31977-.13288,2.59815-0.19476-0.1057-12.29263-.21141-24.58523l-2.56742.214-4.42681-.927,4.73921-1.21521,2.18455-1.08464q0.06864-12.741.13728-25.48192l0.70836,25.723q1.53551,0.2531,3.10066.48206,1.81827,0.26568,3.60071.48706a17.81723,17.81723,0,0,1-2.83776,1.07847,16.03832,16.03832,0,0,1-3.79313.60378q0.17617,12.35285.35235,24.70573,1.81249-.07638,3.71246-0.05754c2.14363,0.02391,4.20874.14588,6.18943,0.34424q-2.917.8754-5.98815,1.63508-1.87511.46151-3.70233,0.85008,0.1057,12.5939.21141,25.18781,1.32984,0.35419,2.70266.65417a58.43455,58.43455,0,0,0,12.92759,1.34808,118.99218,118.99218,0,0,0-12.13933,1.07847q-1.75266.24643-3.46838,0.53925Q770.42062,485.2709,770.76169,501.53829Z" transform="translate(0.5 0.12212)"/><path class="cls-28" d="M821.27495,513.11543H818.0911l0.54438-39.74852h-2.81834q-6.074-.56863-12.148-1.13724a21.55344,21.55344,0,0,0,11.85646-1.70584,26.60892,26.60892,0,0,0,3.32357-1.76187q0.0379-15.30194.0758-30.60391-1.3452-.23332-2.71909-0.42456a79.93242,79.93242,0,0,0-10.20433-.75815,50.71171,50.71171,0,0,1,10.20433-2.27448q1.41971-.163,2.79489-0.23892-0.11371-15.0802-.22742-30.16037-1.38092.13124-2.76184,0.26251-2.381-.56863-4.762-1.13724,2.549-.74538,5.09808-1.49078l2.35-1.3306q0.07383-15.6302.14767-31.26041l0.762,31.55609q1.65178,0.3105,3.33545.59137,1.956,0.32593,3.87337.5975a17.783,17.783,0,0,1-3.05265,1.323,15.30756,15.30756,0,0,1-4.08036.74069q0.18951,15.15408.379,30.3082,1.94974-.0937,3.99358-0.07059a66.05155,66.05155,0,0,1,6.65811.4223q-3.13789,1.07391-6.44159,2.00586-2.0171.56616-3.98269,1.04285,0.11371,15.4498.22742,30.8996,1.43055,0.43451,2.90731.80252a55.431,55.431,0,0,0,13.90652,1.65378,112.658,112.658,0,0,0-13.05857,1.323q-1.88538.30231-3.731,0.66153Q820.908,493.15912,821.27495,513.11543Z" transform="translate(0.5 0.12212)"/><path class="cls-28" d="M728.06164,533.279h-2.06323l0.35278-29.88052h-1.82637l-7.8723-.85491a12.23142,12.23142,0,0,0,7.68336-1.28235,16.59176,16.59176,0,0,0,2.15378-1.32447l0.04912-23.00616q-0.87173-.1754-1.76205-0.31916a44.79415,44.79415,0,0,0-6.61273-.56993,29.05481,29.05481,0,0,1,6.61273-1.70981q0.92-.12254,1.81118-0.17961-0.07369-11.33638-.14737-22.67273l-1.78976.19734-3.08594-.85491,3.30372-1.12068,1.52286-1.00026,0.0957-23.49967,0.4938,23.72195q1.07041,0.23342,2.16148.44456,1.26752,0.245,2.51007.44917a10.76787,10.76787,0,0,1-1.97822.99457,8.70112,8.70112,0,0,1-2.6442.55681l0.24562,22.78386q1.26349-.07044,2.588-0.05306a36.984,36.984,0,0,1,4.31467.31746q-2.03346.8073-4.17436,1.50788-1.30714.42561-2.58091,0.78395l0.14737,23.22844q0.927,0.32664,1.884.60329a31.22538,31.22538,0,0,0,9.01187,1.24321,63.2818,63.2818,0,0,0-8.46237.99457q-1.22179.22726-2.41782,0.4973Q727.82388,518.277,728.06164,533.279Z" transform="translate(0.5 0.12212)"/><path class="cls-28" d="M661.19776,574.61714h-5.5396l0.94718-48.30364h-4.90366q-10.56824-.691-21.13648-1.382a52.42278,52.42278,0,0,0,20.6292-2.073,55.394,55.394,0,0,0,5.78272-2.14108q0.06594-18.59539.13189-37.19082-2.34053-.28354-4.731-0.51594c-6.12021-.59352-12.04455-0.88149-17.75464-0.92133a121.57189,121.57189,0,0,1,17.75464-2.764q2.47018-.19809,4.86286-0.29035-0.19784-18.32593-.39569-36.65182-2.40268.15949-4.80536,0.319-4.14275-.691-8.2855-1.382,4.43511-.9058,8.87021-1.81165,2.04438-.80851,4.08875-1.617,0.12847-18.99431.25694-37.98862l1.32581,38.34794q2.874,0.37733,5.80339.71865,3.40319,0.39608,6.73932.7261a38.967,38.967,0,0,1-5.31135,1.60779,37.14575,37.14575,0,0,1-7.09947.90011q0.32974,18.41571.65948,36.83146,3.39237-.11387,6.94849-0.08578c4.01216,0.03564,7.87736.21747,11.58454,0.51319q-5.45966,1.30505-11.20781,2.43758-3.50958.688-6.92953,1.2673,0.19784,18.77508.39569,37.55015,2.489,0.528,5.05847.97525a136.36829,136.36829,0,0,0,24.19614,2.00972c-7.32545.21762-14.90612,0.73263-22.72076,1.60779q-3.28039.36737-6.49165,0.80391Q660.55938,550.36561,661.19776,574.61714Z" transform="translate(0.5 0.12212)"/><path class="cls-28" d="M532.51515,585.47691h-3.8649l0.66083-44.07127h-3.42121q-7.3733-.63047-14.7466-1.26092a28.42677,28.42677,0,0,0,14.39268-1.89136,33.44688,33.44688,0,0,0,4.03451-1.95348q0.046-16.96607.092-33.93217-1.63295-.2587-3.30073-0.47073a106.07231,106.07231,0,0,0-12.38714-.8406,66.574,66.574,0,0,1,12.38714-2.52183q1.7234-.18074,3.39275-0.26491-0.138-16.72021-.27606-33.44039-1.67631.14551-3.35262,0.29106-2.89033-.63047-5.78067-1.26092,3.09431-.82644,6.18861-1.65291,1.42633-.73767,2.85266-1.4753,0.08963-17.33.17926-34.66005l0.925,34.9879q2.00511,0.34427,4.04894.65568,2.37436,0.36137,4.70192.66248a22.70126,22.70126,0,0,1-3.70565,1.46691,20.17373,20.17373,0,0,1-4.95319.82124q0.23005,16.80213.46011,33.60429,2.3668-.10389,4.84785-0.07826c2.79922,0.03252,5.49591.19842,8.08235,0.46823q-3.80912,1.1907-7.81952,2.224-2.44858.62773-4.83463,1.15626,0.138,17.13.27606,34.26,1.73655,0.48176,3.52922.8898a73.37363,73.37363,0,0,0,16.88127,1.83363,149.33116,149.33116,0,0,0-15.85193,1.46691q-2.28868.33518-4.52912,0.73347Q532.06976,563.3503,532.51515,585.47691Z" transform="translate(0.5 0.12212)"/><path class="cls-28" d="M143.3808,518.54846h-2.09209l0.35771-23.40676h-1.85192l-7.98241-.66969a15.6602,15.6602,0,0,0,7.79083-1.00452,18.256,18.256,0,0,0,2.1839-1.03752l0.04981-18.02177q-0.88392-.1374-1.7867-0.25a58.50278,58.50278,0,0,0-6.70522-.44645,36.64327,36.64327,0,0,1,6.70522-1.33937q0.93289-.096,1.83651-0.14069L141.737,454.47111l-1.81479.15459-3.1291-.66969,3.34993-.87788,1.54416-.78355,0.097-18.40836,0.5007,18.58248q1.08538,0.18285,2.19171.34824,1.28525,0.19193,2.54517.35185a12.4282,12.4282,0,0,1-2.00588.77909,11.11206,11.11206,0,0,1-2.68119.43617l0.24906,17.84763q1.28116-.05518,2.62417-0.04157c1.51523,0.01727,2.975.10538,4.375,0.24868q-2.0619.6324-4.23274,1.18119-1.32543.3334-2.617,0.6141L142.88269,492.43q0.94,0.25587,1.91038.47258a40.44908,40.44908,0,0,0,9.13792.97386,82.3441,82.3441,0,0,0-8.58073.77909q-1.23887.178-2.45164,0.38956Q143.13971,506.79676,143.3808,518.54846Z" transform="translate(0.5 0.12212)"/><path class="cls-28" d="M350.6399,590.28h-5.601l0.95767-53.91974h-4.958q-10.68529-.77136-21.37058-1.54269a48.2518,48.2518,0,0,0,20.85769-2.314,52.76127,52.76127,0,0,0,5.84677-2.39q0.06667-20.75742.13335-41.51488-2.36645-.31651-4.78337-0.57593c-6.188-.66253-12.178-0.984-17.95129-1.02844a112.2403,112.2403,0,0,1,17.95129-3.08538q2.49754-.22113,4.91673-0.3241-0.2-20.45662-.40007-40.9132-2.42929.178-4.85858,0.3561-4.18863-.77136-8.37727-1.54269,4.48423-1.01112,8.96846-2.02228,2.067-.90251,4.134-1.805,0.12989-21.20271.25978-42.40543l1.34049,42.80653q2.90578,0.4212,5.86767.80221,3.44089,0.44213,6.814.81053a36.688,36.688,0,0,1-5.37018,1.79472,34.20628,34.20628,0,0,1-7.17811,1.00477q0.33339,20.55685.66678,41.11373,3.42994-.12711,7.02545-0.09575c4.0566,0.03978,7.96461.24276,11.71285,0.57286q-5.52013,1.45679-11.33194,2.721-3.54845.768-7.00628,1.41464,0.2,20.958.40007,41.916,2.51659,0.58942,5.1145,1.08864a125.21373,125.21373,0,0,0,24.46413,2.24339c-7.40659.24292-15.07122,0.81781-22.97242,1.79472q-3.31673.41009-6.56355,0.89738Q349.99445,563.20882,350.6399,590.28Z" transform="translate(0.5 0.12212)"/><polygon class="cls-29" points="785.049 461.698 761.457 574.402 808.642 574.402 785.049 461.698"/><path class="cls-28" d="M783.824,589.65044c0.15924-2.85789.24854-5.87477,0.24146-9.03645-0.00739-3.28116-.1178-6.4066-0.30194-9.3607q-2.92566-.38314-5.91187-0.8181-4.61-.67225-9.04944-1.42323a19.02974,19.02974,0,0,1,6.71246-1.17343,21.78978,21.78978,0,0,0,5.38019-.13325,14.35572,14.35572,0,0,0,3.29572-1.07049q0.33261-12.12925.66516-24.25854-1.35324-.2179-2.73627-0.40314a102.39436,102.39436,0,0,0-10.285-.85092,63.35254,63.35254,0,0,1,10.34332-1.55311q1.436-.09445,2.82556-0.12094,0.17523-11.9572.35059-23.91436-1.39636.07021-2.79266,0.14046-2.39227-.50909-4.78461-1.01814,2.58719-.52844,5.17438-1.05692,1.1987-.49863,2.39746-0.99724l0.75037-24.77719q0.081,12.51694.16211,25.03386,1.66122,0.28661,3.35516.55048,1.968,0.30628,3.89807.56851a20.7925,20.7925,0,0,1-3.10663.974,19.29638,19.29638,0,0,1-4.13269.48723q-0.10016,12.01762-.20038,24.03526,1.96976-.02654,4.03217.04185c2.327,0.07972,4.56628.25274,6.71216,0.49783q-3.18787.77446-6.54028,1.43233-2.04684.39941-4.03992,0.72915-0.18237,12.25017-.36481,24.50035c0.67627-.05845,1.6745-0.12584,2.88373-0.13543a39.91394,39.91394,0,0,1,9.08832,1.03866,42.363,42.363,0,0,1,4.95142,1.45572,32.69147,32.69147,0,0,0-12.08881.55793,31.92693,31.92693,0,0,0-4.68036,1.50979c-0.0639,2.717-.02972,5.64533.151,8.75678,0.20471,3.52445.56921,6.79877,1.02045,9.79134H783.824Z" transform="translate(0.5 0.12212)"/><path class="cls-28" d="M71.62846,590.215c0.15924-2.85789.24854-5.87477,0.24146-9.03645-0.00739-3.28116-.1178-6.4066-0.30194-9.3607q-2.92566-.38314-5.91187-0.8181-4.61-.67225-9.04944-1.42323a19.02974,19.02974,0,0,1,6.71246-1.17343,21.78978,21.78978,0,0,0,5.38019-.13325,14.35572,14.35572,0,0,0,3.29572-1.07049q0.33261-12.12925.66516-24.25854-1.35324-.2179-2.73627-0.40314a102.39436,102.39436,0,0,0-10.285-.85092,63.35254,63.35254,0,0,1,10.34332-1.55311q1.436-.09445,2.82556-0.12095,0.17523-11.9572.35059-23.91436-1.39636.07021-2.79266,0.14046-2.39227-.50909-4.78461-1.01814,2.58719-.52844,5.17438-1.05692,1.1987-.49863,2.39746-0.99724l0.75037-24.77719q0.081,12.51694.16211,25.03386,1.66122,0.28661,3.35516.55048,1.968,0.30628,3.89807.56851a20.7925,20.7925,0,0,1-3.10663.974,19.29638,19.29638,0,0,1-4.13269.48723Q73.97923,528.021,73.879,540.03864q1.96976-.02654,4.03217.04185c2.327,0.07972,4.56628.25274,6.71216,0.49783q-3.18787.77446-6.54028,1.43233-2.04684.39941-4.03992,0.72915-0.18237,12.25017-.36481,24.50035c0.67627-.05845,1.6745-0.12584,2.88373-0.13543a39.91394,39.91394,0,0,1,9.08832,1.03866,42.36294,42.36294,0,0,1,4.95142,1.45572A32.69147,32.69147,0,0,0,78.513,570.157a31.92693,31.92693,0,0,0-4.68036,1.50979c-0.0639,2.717-.02972,5.64533.151,8.75678,0.20471,3.52445.56921,6.79877,1.02045,9.79134H71.62846Z" transform="translate(0.5 0.12212)"/><path class="cls-28" d="M284.3457,591.03479c0.2329-4.32991.36669-8.90052,0.36374-13.69028-0.00311-4.97077-.15308-9.7054-0.4083-14.18028q-4.15978-.57385-8.40555-1.22606-6.55453-1.008-12.8662-2.13572a25.60779,25.60779,0,0,1,9.54859-1.79281c2.42625,0.03249,4.49606.44436,7.65158-.214a19.612,19.612,0,0,0,4.68932-1.62917q0.50035-18.37592,1.00061-36.75189-1.924-.32706-3.8904-0.60458a136.78406,136.78406,0,0,0-14.62457-1.26592,85.097,85.097,0,0,1,14.713-2.37619q2.04239-.14632,4.01857-0.18959,0.27615-18.11492.55247-36.22977-1.986.10951-3.97182,0.21908-3.401-.76585-6.802-1.53165,3.68049-.80639,7.361-1.61283,1.70582-.7581,3.41173-1.51617l1.123-37.53782q0.087,18.96232.17412,37.9246,2.36182,0.43045,4.77021.82639,2.79807,0.45956,5.54225.85248a28.34773,28.34773,0,0,1-4.4202,1.48262,25.868,25.868,0,0,1-5.87829.74744q-0.16952,18.20629-.33913,36.41259,2.80129-.04464,5.73414.05431c3.309,0.11553,6.49324.3726,9.54439,0.73906q-4.53528,1.18045-9.30431,2.18464-2.91176.6097-5.7469,1.11373-0.287,18.55876-.574,37.11755c0.96187-.09007,2.38163-0.19442,4.10132-0.21167a53.36926,53.36926,0,0,1,12.92236,1.553,57.30846,57.30846,0,0,1,7.03824,2.19418,43.30156,43.30156,0,0,0-23.85246,3.17028c-0.097,4.1162-.055,8.55244.195,13.26572,0.28318,5.33889.79417,10.2985,1.42913,14.83107Z" transform="translate(0.5 0.12212)"/><path class="cls-28" d="M626.16436,568.59627c0.14347-2.55048.2234-5.24289,0.21582-8.06456-0.0079-2.9283-.10924-5.71766-0.27743-8.35414q-2.65518-.343-5.36533-0.73228-4.18387-.60164-8.2129-1.27348a17.52639,17.52639,0,0,1,6.09114-1.04478,20.10356,20.10356,0,0,0,4.88248-.117,13.17236,13.17236,0,0,0,2.99048-.95417q0.29741-10.82472.59477-21.64947-1.22815-.195-2.48331-0.36079c-3.21365-.42371-6.32841-0.667-9.33394-0.76317a58.3738,58.3738,0,0,1,9.386-1.38231q1.30314-.08377,2.56416-0.10691,0.15466-10.67123.30942-21.34242-1.26718.06215-2.5343,0.12433-2.17118-.45522-4.34241-0.9104l4.69537-.94136q1.08764-.44457,2.17534-0.88912l0.67191-22.11231q0.0781,11.17087.15626,22.34171,1.50767,0.25639,3.045.49251,1.78609,0.27406,3.53771.5088a19.08825,19.08825,0,0,1-2.81891.86815,17.78859,17.78859,0,0,1-3.75025.43332q-0.0865,10.72518-.17306,21.45037,1.78755-.023,3.65921.03882c2.11175,0.072,4.144.22723,6.09148,0.44675q-2.89271.69-5.93479,1.2759-1.85737.35571-3.666,0.64926-0.161,10.93269-.32211,21.86539c0.61369-.05192,1.51956-0.1117,2.61694-0.11981a36.81833,36.81833,0,0,1,8.248.93028,38.9657,38.9657,0,0,1,4.49395,1.301,30.154,30.154,0,0,0-10.97041.49352,29.30251,29.30251,0,0,0-4.24688,1.34571c-0.057,2.42475-.02491,5.0382.14023,7.81511,0.18706,3.14549.519,6.06782,0.92963,8.73873Z" transform="translate(0.5 0.12212)"/><path class="cls-28" d="M247.12644,540.69015h-3.49452l0.5975-46.11068h-3.09335q-6.66671-.65965-13.33342-1.31926a22.50295,22.50295,0,0,0,13.01341-1.97888,28.7071,28.7071,0,0,0,3.64788-2.04388q0.0416-17.75117.0832-35.50238-1.47646-.27067-2.98441-0.49252a83.096,83.096,0,0,0-11.20007-.8795,53.11831,53.11831,0,0,1,11.20007-2.63853q1.55825-.1891,3.06762-0.27716-0.1248-17.49394-.24961-34.98785-1.51567.15225-3.03134,0.30453-2.61335-.65965-5.2267-1.31926,2.79778-.86468,5.59555-1.7294,1.28965-.7718,2.57929-1.54357,0.081-18.132.16208-36.264l0.83635,36.607q1.813,0.3602,3.66092.686,2.14682,0.3781,4.25133.69314a18.98762,18.98762,0,0,1-3.35053,1.53479,15.99064,15.99064,0,0,1-4.47852.85925q0.208,17.57965.416,35.15933,2.14-.1087,4.38328-0.08189a68.646,68.646,0,0,1,7.30781.4899q-3.44409,1.2458-7.07016,2.32692-2.21393.65678-4.37132,1.20977,0.1248,17.9227.24961,35.84539,1.57014,0.50406,3.191.931a57.7268,57.7268,0,0,0,15.26352,1.91848,117.21007,117.21007,0,0,0-14.33282,1.53479q-2.06935.35069-4.09509,0.76741Q246.72373,517.53962,247.12644,540.69015Z" transform="translate(0.5 0.12212)"/><polygon class="cls-30" points="724.237 506.909 710.919 570.402 737.555 570.402 724.237 506.909"/><polygon class="cls-31" points="214.702 491.445 196.249 583.457 233.155 583.457 214.702 491.445"/><path class="cls-28" d="M186.92683,583.86133h-3.26047l0.55748-57.44h-2.88617q-6.2202-.82173-12.4404-1.64341a16.35,16.35,0,0,0,12.14183-2.46509,25.95427,25.95427,0,0,0,3.40356-2.54606q0.03881-22.11262.07763-44.22529-1.37757-.33717-2.78453-0.61353a58.53455,58.53455,0,0,0-10.44993-1.09559,39.52093,39.52093,0,0,1,10.44993-3.28681q1.45388-.23556,2.86216-0.34526-0.11644-21.79219-.23289-43.58433-1.41416.18965-2.82831,0.37935-2.43832-.82173-4.87664-1.64341,2.61039-1.07713,5.22078-2.15431,1.20327-.96144,2.40654-1.92283,0.07561-22.587.15123-45.174L185.219,421.702q1.69154,0.4487,3.41573.85458,2.003,0.471,3.96659.86344a16.08317,16.08317,0,0,1-3.12612,1.91189,11.66816,11.66816,0,0,1-4.17857,1.07036q0.19407,21.899.38815,43.798c1.33111-.09027,2.69484-0.12705,4.0897-0.102a48.25291,48.25291,0,0,1,6.81837.61026q-3.21342,1.5519-6.59663,2.89864-2.06565.81815-4.07855,1.507,0.11644,22.32629.23289,44.65258,1.465,0.6279,2.97729,1.15971a41.19476,41.19476,0,0,0,14.24123,2.38985,83.05288,83.05288,0,0,0-13.37287,1.91189q-1.93076.43686-3.82082,0.956Q186.5511,555.02274,186.92683,583.86133Z" transform="translate(0.5 0.12212)"/><polygon class="cls-32" points="592.249 438.362 553.971 579.402 630.528 579.402 592.249 438.362"/><path class="cls-28" d="M109.9992,583.80849h-2.39494l0.40949-35.09717h-2.12l-9.138-1.00416a14.05133,14.05133,0,0,0,8.91864-1.50622,19.22106,19.22106,0,0,0,2.5-1.5557q0.02851-13.51132.057-27.02266-1.01188-.206-2.04535-0.37488a51.39961,51.39961,0,0,0-7.67588-.66943,33.40733,33.40733,0,0,1,7.67588-2.00832q1.06793-.14393,2.10237-0.211-0.08553-13.31552-.17107-26.631l-2.07751.23179-3.58208-1.00416,3.83487-1.31633,1.7677-1.17489q0.05554-13.80117.11108-27.60233l0.57319,27.86342q1.2425,0.27417,2.509.52217,1.47131,0.28779,2.91362.52758a12.44243,12.44243,0,0,1-2.29626,1.16821,9.99731,9.99731,0,0,1-3.06932.654q0.14256,13.38076.28511,26.76155,1.46663-.08274,3.004-0.06233a42.43439,42.43439,0,0,1,5.00836.37288q-2.36038.94824-4.84548,1.77113-1.5173.49991-2.99585,0.92081,0.08553,13.64187.17107,27.28374,1.07608,0.38366,2.18693.70861a35.8472,35.8472,0,0,0,10.46074,1.46025,72.62929,72.62929,0,0,0-9.82289,1.16821q-1.41822.26693-2.80654,0.58412Q109.72322,566.18745,109.9992,583.80849Z" transform="translate(0.5 0.12212)"/><path class="cls-28" d="M591.33338,591.7363c0.20764-3.33471.31575-6.8554,0.28717-10.54567-0.02972-3.82972-.20374-7.4783-0.48068-10.92733q-4.12607-.46441-8.33778-0.98965-6.502-.81176-12.76385-1.7144a31.79042,31.79042,0,0,1,9.45453-1.33009,37.02135,37.02135,0,0,0,7.58277-.12386,23.12256,23.12256,0,0,0,4.63912-1.23006q0.39745-14.155.79482-28.31-1.90872-.26229-3.85923-0.48664c-4.994-.57328-9.83326-0.91006-14.502-1.05369a106.2973,106.2973,0,0,1,14.57011-1.75189q2.02354-.10179,3.982-0.12454,0.17664-13.95508.35344-27.91011-1.9678.07373-3.93552,0.1475-3.375-.60827-6.75-1.2165,3.64362-.60156,7.28723-1.20315,1.68667-.57493,3.37343-1.14984l0.91187-28.91483q0.18786,14.6099.3758,29.21978,2.34324,0.34429,4.73245.66225,2.77579,0.36906,5.4978.68649a33.66035,33.66035,0,0,1-4.37316,1.11859,32.529,32.529,0,0,1-5.82229.54436q-0.07046,14.026-.141,28.0521,2.77628-.01938,5.68371.07257c3.2804,0.10674,6.43781.32186,9.46393,0.62055q-4.48884.88517-9.21031,1.63329-2.88274.45414-5.6901,0.82727-0.185,14.297-.37,28.594c0.95288-.06424,2.35952-0.137,4.06391-0.1411a67.69432,67.69432,0,0,1,12.81639,1.26578,69.88734,69.88734,0,0,1,6.98775,1.72821,55.4099,55.4099,0,0,0-17.03628.58007,51.55406,51.55406,0,0,0-6.58823,1.73464c-0.07409,3.17079-.00868,6.58889.26437,10.22156a105.027,105.027,0,0,0,1.496,11.43419Z" transform="translate(0.5 0.12212)"/><path class="cls-28" d="M213.60642,591.28c0.11335-2.09732.17825-4.31125,0.17632-6.63134-0.002-2.40777-.07578-4.70117-0.20093-6.86877q-2.03243-.27839-4.10688-0.59474-3.20249-.48894-6.28633-1.03582a12.60517,12.60517,0,0,1,4.665-.86744,14.34534,14.34534,0,0,0,3.73836-.10287,9.63307,9.63307,0,0,0,2.29092-.78867q0.24259-8.901.48514-17.802-0.94-.15862-1.90082-0.29324a67.40121,67.40121,0,0,0-7.14534-.61468,41.899,41.899,0,0,1,7.18816-1.1495q0.99785-.07067,1.96336-0.09143,0.13308-8.77457.26624-17.54912l-1.94052.10571q-1.6617-.37131-3.32345-0.7426l3.59623-.78048,1.66674-.73406,0.54483-18.18266q0.04444,9.18508.08893,18.37014,1.154,0.20874,2.3307.40078,1.36712,0.22289,2.7079.41349a13.9279,13.9279,0,0,1-2.15945.71771,12.74017,12.74017,0,0,1-2.87192.36145q-0.081,8.81884-.162,17.6377,1.36864-.02134,2.80157.02689c1.61673,0.0563,3.17248.18114,4.66323,0.359q-2.21571.57133-4.54564,1.05726-1.42256.295-2.80768,0.53889-0.13832,8.98957-.27667,17.97915c0.46994-.04353,1.16359-0.09393,2.00378-0.10211a26.2945,26.2945,0,0,1,6.31371.75358,28.18819,28.18819,0,0,1,3.43894,1.06355,21.31178,21.31178,0,0,0-11.65342,1.53321c-0.047,1.99382-.026,4.14267.09663,6.42574,0.1389,2.58611.38906,4.98852,0.69975,7.1841Z" transform="translate(0.5 0.12212)"/><path class="cls-28" d="M722.10571,579.5168c0.10714-1.81466.16492-3.7304,0.15481-5.73826-0.01051-2.08373-.09309-4.06874-0.22714-5.94506q-2.05426-.24807-4.1511-0.52914-3.23706-.4344-6.35446-0.91852a14.60578,14.60578,0,0,1,4.70983-.73429,16.88739,16.88739,0,0,0,3.77635-.07588,10.791,10.791,0,0,0,2.31165-.67447q0.21378-7.70221.42751-15.40444-0.95025-.14058-1.92135-0.26046c-2.48634-.30633-4.89593-0.48416-7.2208-0.55708a48.74615,48.74615,0,0,1,7.25786-.96952q1.00783-.05765,1.98317-0.07222,0.10359-7.5932.20726-15.18638l-1.96005.08466q-1.68006-.32719-3.36015-0.65435l3.63038-.6628,1.68125-.62941,0.48648-15.73368q0.0772,7.94909.15444,15.89816,1.16654,0.18471,2.356.355,1.38192,0.1977,2.73713.36737a15.67439,15.67439,0,0,1-2.17908.61352,14.88759,14.88759,0,0,1-2.9001.30271q-0.05079,7.6317-.10162,15.2634,1.38261-.01366,2.8304.03313c1.63352,0.05441,3.20566.16792,4.71233,0.32705q-2.23643.48665-4.58855,0.899-1.43611.25032-2.83459,0.45649-0.10812,7.77924-.21629,15.55849c0.4746-.036,1.17519-0.0772,2.024-0.08132a30.9022,30.9022,0,0,1,6.38113.67437,32.28112,32.28112,0,0,1,3.478.93251,25.30121,25.30121,0,0,0-8.48469.33469,24.0332,24.0332,0,0,0-3.28287.9512c-0.04044,1.72532-.0117,3.585.12021,5.56129a62.07589,62.07589,0,0,0,.73219,6.21971Z" transform="translate(0.5 0.12212)"/></svg>