<svg id="Layer_2" data-name="Layer 2" xmlns="http://www.w3.org/2000/svg" viewBox="0 0 317.25389 65.56363"><defs><style>.cls-1{fill:none;stroke:#eb8960;stroke-miterlimit:10;stroke-width:0.1px;}</style></defs><title>footer</title><path class="cls-1" d="M554.23612,221.16964H539.84957l-302.44637.00011,14.38568-7.22382q-6.90005-3.69526-13.80017-7.39052l13.43774-6.71887q-6.90051-3.81341-13.801-7.62682l13.801-7.26365q-6.90051-3.81341-13.801-7.62682l14.16412-7.08205-14.16412-7.08205,14.52728-7.44524,143.466,44.29906L539.8619,156.18012l14.19127,7.2569-14.07867,7.25891,13.9174,7.25488-13.86873,7.015,14.19125,7.33753L539.8619,199.399l14.19127,7.41817-14.19127,7.09563Z" transform="translate(-237.19221 -155.65612)"/><line class="cls-1" x1="316.75511" y1="7.76006" x2="158.47399" y2="44.37214"/><line class="cls-1" x1="316.60579" y1="22.28231" x2="158.45515" y2="44.38569"/><line class="cls-1" x1="316.96484" y1="36.62953" x2="158.45028" y2="44.39096"/><line class="cls-1" x1="316.84651" y1="51.16802" x2="158.53908" y2="44.42998"/><line class="cls-1" x1="316.87298" y1="65.47539" x2="158.49768" y2="44.4217"/><line class="cls-1" x1="0.33017" y1="65.48927" x2="158.36455" y2="44.39141"/><line class="cls-1" x1="0.82098" y1="50.9068" x2="158.40583" y2="44.39932"/><line class="cls-1" x1="0.48327" y1="36.55214" x2="158.41517" y2="44.3927"/><line class="cls-1" x1="0.50905" y1="21.65566" x2="158.42033" y2="44.39005"/><line class="cls-1" x1="0.49224" y1="7.48822" x2="158.43209" y2="44.36127"/><line class="cls-1" x1="158.39662" y1="44.39729" x2="158.54139" y2="65.49229"/><line class="cls-1" x1="185.71854" y1="65.50387" x2="158.43585" y2="44.39916"/><line class="cls-1" x1="212.9617" y1="65.49719" x2="158.45432" y2="44.39165"/><line class="cls-1" x1="239.77852" y1="65.49898" x2="158.45432" y2="44.38381"/><line class="cls-1" x1="266.77051" y1="65.48863" x2="158.43512" y2="44.38871"/><line class="cls-1" x1="158.36972" y1="44.40461" x2="130.83802" y2="65.51018"/><line class="cls-1" x1="103.74294" y1="65.49768" x2="158.39437" y2="44.40695"/><line class="cls-1" x1="76.44508" y1="65.50894" x2="158.40598" y2="44.40669"/><line class="cls-1" x1="50.0301" y1="65.49994" x2="158.42406" y2="44.39021"/></svg>