<svg id="Layer_2" data-name="Layer 2" xmlns="http://www.w3.org/2000/svg" viewBox="0 0 52.31546 52.33249"><defs><style>.cls-1{fill:none;}.cls-1,.cls-2{stroke:#eb8a61;stroke-miterlimit:10;}.cls-2{fill:#eb8960;stroke-width:0.2px;}</style></defs><title>github</title><ellipse class="cls-1" cx="26.15774" cy="26.16624" rx="25.65773" ry="25.66624"/><path class="cls-2" d="M415.16556,284.11957a9.19463,9.19463,0,0,0-6.257-2.11777,8.16913,8.16913,0,0,0,.1925,5.77573,9.061,9.061,0,0,0-2.40652,3.27289,9.23946,9.23946,0,0,0-.67386,4.52432,11.844,11.844,0,0,0,4.62058,8.086,11.53443,11.53443,0,0,0,6.06451,2.11777,2.323,2.323,0,0,0-.95724,1.27045,4.67971,4.67971,0,0,1-.19791,1.23236,1.84451,1.84451,0,0,1-.98862.761,3.23551,3.23551,0,0,1-1.89844.1424,4.1621,4.1621,0,0,1-2.13574-1.13907c-0.47849-.47037-0.35019-0.57083-0.85428-1.09158a5.5481,5.5481,0,0,0-1.99335-1.28143,6.52731,6.52731,0,0,0-2.27811-.47461,4.86481,4.86481,0,0,1,.94922.66446,7.8175,7.8175,0,0,1,1.70856,2.89508,7.06386,7.06386,0,0,0,2.89511,2.94257,6.49855,6.49855,0,0,0,4.41385.42715c0.02145,1.2869.06229,2.28027,0.09494,2.94257a5.749,5.749,0,0,1-.14239,2.08826,4.67553,4.67553,0,0,1-.56952,1.234,4.01055,4.01055,0,0,0,2.08826-.37967,1.70138,1.70138,0,0,0,.87228-0.8161,1.23557,1.23557,0,0,0,.08646-0.37476c0.06778-.86349-0.003-6.51367-0.00952-7.01984h0.56952q0.13078,3.62521.26154,7.25046a1.3471,1.3471,0,0,1-.87851,1.43484,2.46659,2.46659,0,0,0,2.13571-.04745,2.388,2.388,0,0,0,1.04416-1.28146,2.45689,2.45689,0,0,0,.1344-0.94186q-0.04349-3.231-.08694-6.462h0.71191c0.11627,2.65256.16809,4.65717,0.13394,6.10858a2.35907,2.35907,0,0,0,.27567,1.28064,3.38891,3.38891,0,0,0,2.58041,1.34357,1.36816,1.36816,0,0,1-.52206-1.32892l0.14236-7.45132H424.861v6.21735a2.3008,2.3008,0,0,0,.33221,1.234,2.84534,2.84534,0,0,0,2.89511,1.09161,2.38387,2.38387,0,0,1-.95645-1.74136c0.09845-4.35172.0621-7.55344-.04022-8.46271a3.23154,3.23154,0,0,0-.33224-1.139A3.098,3.098,0,0,0,426,305.95737a10.141,10.141,0,0,0,5.98-2.08829c4.0455-3.21033,3.75168-8.58273,3.70193-9.49213a10.4135,10.4135,0,0,0-.90173-3.84433,10.23476,10.23476,0,0,0-1.66113-2.56287,8.84868,8.84868,0,0,0-.56952-6.12244,8.603,8.603,0,0,0-6.21735,2.373A19.74,19.74,0,0,0,415.16556,284.11957Z" transform="translate(-394.54199 -271.9404)"/></svg>