<svg id="Layer_1" data-name="Layer 1" xmlns="http://www.w3.org/2000/svg" viewBox="0 0 36.13569 21.80939"><defs><style>.cls-1{fill:#0c022f;stroke:#fff;stroke-miterlimit:10;stroke-width:0.1px;}</style></defs><title>monogram</title><path class="cls-1" d="M0.05414,3.6406L3.67355,0.0943,7.293,3.71372,7.31546,14.498l10.782,0.03162,3.57294,3.57294-3.54132,3.63617-14.4642.02063L0.10614,18.14362Z" transform="translate(0 0.00005)"/><path class="cls-1" d="M18.09021,7.28156L14.49368,3.70264l3.57889-3.63177,3.59485,3.58319,7.23,0.06622,3.59634-3.60754,3.59192,3.59192V18.1229L32.494,21.73819l-3.6427-3.6153L28.87982,7.33444,25.28329,10.931,21.70441,7.29917Z" transform="translate(0 0.00005)"/><line class="cls-1" x1="0.04165" y1="3.62176" x2="7.26192" y2="14.49304"/><line class="cls-1" x1="3.63816" y1="0.13423" x2="7.26192" y2="14.43855"/><line class="cls-1" x1="0.0689" y1="18.14405" x2="7.26192" y2="14.49304"/><line class="cls-1" x1="3.66541" y1="21.71331" x2="7.28917" y2="14.49304"/><line class="cls-1" x1="18.10596" y1="21.71331" x2="7.28917" y2="14.49304"/><line class="cls-1" x1="21.61926" y1="18.11492" x2="7.26192" y2="14.49378"/><line class="cls-1" x1="32.50641" y1="0.17064" x2="28.87042" y2="7.34715"/><line class="cls-1" x1="36.04063" y1="3.75176" x2="28.84833" y2="7.38103"/><line class="cls-1" x1="36.07619" y1="18.0888" x2="28.84595" y2="7.3459"/><line class="cls-1" x1="32.48741" y1="21.71327" x2="28.84595" y2="7.3459"/><line class="cls-1" x1="28.93504" y1="3.71745" x2="28.90175" y2="7.36179"/><line class="cls-1" x1="25.25741" y1="10.88965" x2="28.93504" y2="3.70081"/><line class="cls-1" x1="21.64635" y1="3.65089" x2="25.25741" y2="10.85637"/><line class="cls-1" x1="21.69627" y1="7.27859" x2="21.67963" y2="3.63424"/><line class="cls-1" x1="18.0608" y1="0.10618" x2="21.69348" y2="7.25919"/><line class="cls-1" x1="14.50302" y1="3.68268" x2="21.67476" y2="7.25919"/></svg>