<svg id="Layer_1" data-name="Layer 1" xmlns="http://www.w3.org/2000/svg" viewBox="0 0 51.5162 51.5162"><defs><style>.cls-1{fill:none;}.cls-1,.cls-2{stroke:#eb8a61;stroke-miterlimit:10;}.cls-2{fill:#eb8a61;}</style></defs><title>twitter</title><circle class="cls-1" cx="25.7581" cy="25.7581" r="25.2581"/><path class="cls-2" d="M215.6536,33.474a8.48111,8.48111,0,0,1-2.15727,5.50014,8.37116,8.37116,0,0,1-4.2952,2.492c0.01773,1.4-.00644,3.03385.01129,4.03385H213q0.12653,5.7076.25307,11.41521a5.8253,5.8253,0,0,0,.47849,2.76465,6.82672,6.82672,0,0,0,3.77483,3.29632c4.34,1.92059,9.03224-.36332,9.88895-0.7975q-0.02657-2.33932-.05316-4.67865a6.781,6.781,0,0,1-3.40265,1.16966,4.22815,4.22815,0,0,1-3.08365-.69116,4.08278,4.08278,0,0,1-1.276-3.29632c-0.05316-2.97732-.02234-5.95464-0.0755-8.932,2.30388-.03544,4.99564-0.1972,6.99564-0.23264-0.02055-1.63044-.04111-3.01762-0.06166-5.01762l-6.75214-.01321q-0.0266-3.56215-.05318-7.1243Z" transform="translate(-193.73036 -22.90429)"/></svg>